<?xml version="1.0" standalone="no"?>
<svg viewBox="0 0 200 200" xmlns="http://www.w3.org/2000/svg">
  <path fill="#9071BB" d="M19.6,-30.1C24.9,-27,28.6,-20.9,37.4,-13.6C46.1,-6.3,60,2.2,65.4,14C70.8,25.8,67.8,41,57.6,46.3C47.4,51.6,29.9,47.1,17.5,43.2C5.1,39.3,-2.2,36,-9.2,33.1C-16.1,30.2,-22.7,27.8,-29.7,23.6C-36.8,19.4,-44.3,13.4,-46.1,6.1C-48,-1.2,-44.1,-9.8,-42.2,-21.5C-40.3,-33.2,-40.4,-48.1,-33.7,-50.6C-27,-53.1,-13.5,-43.2,-3.2,-38.2C7.1,-33.3,14.2,-33.2,19.6,-30.1Z" transform="translate(100 100)" />
</svg>
