<?xml version="1.0" standalone="no"?>
<svg viewBox="0 0 200 200" xmlns="http://www.w3.org/2000/svg">
  <path fill="#9071BB" d="M25.8,-39.2C37.7,-32.4,54.7,-32.6,67.3,-24.9C80,-17.2,88.3,-1.6,85.7,11.9C83.1,25.4,69.5,37,57.9,49.9C46.2,62.8,36.5,77,23.5,81.6C10.4,86.3,-6,81.2,-20,74.3C-34,67.3,-45.6,58.5,-53.1,47.4C-60.6,36.3,-64,23,-62.1,11.3C-60.1,-0.5,-52.8,-10.6,-46.7,-20.2C-40.5,-29.7,-35.5,-38.6,-28,-47.4C-20.4,-56.2,-10.2,-64.8,-1.6,-62.2C6.9,-59.7,13.8,-46,25.8,-39.2Z" transform="translate(100 100)" />
</svg>
