<?xml version="1.0" standalone="no"?>
<svg viewBox="0 0 200 200" xmlns="http://www.w3.org/2000/svg">
  <path fill="#9071BB" d="M24,-36.7C31.6,-32.4,38.7,-26.6,50.6,-18C62.6,-9.3,79.4,2.3,82.7,15.2C85.9,28.1,75.6,42.3,61.4,46.3C47.2,50.3,29.2,44.1,15.1,45.7C1,47.3,-9.2,56.6,-18.8,57C-28.4,57.4,-37.5,48.9,-48.6,40C-59.6,31,-72.6,21.7,-71.4,11.9C-70.3,2.1,-55.1,-8,-44.3,-15.4C-33.4,-22.7,-26.9,-27.2,-20.3,-32C-13.6,-36.7,-6.8,-41.7,0.7,-42.8C8.2,-43.8,16.3,-41,24,-36.7Z" transform="translate(100 100)" />
</svg>
