<?xml version="1.0" standalone="no"?>
<svg viewBox="0 0 200 200" xmlns="http://www.w3.org/2000/svg">
  <path fill="#9071BB" d="M41.3,-64.7C54,-56.1,65,-45.4,66.9,-33C68.8,-20.6,61.6,-6.4,57.5,6.9C53.4,20.1,52.5,32.4,44.6,35.2C36.8,38,22,31.4,10.5,33.8C-1,36.3,-9.2,47.9,-22.5,54.2C-35.8,60.6,-54.1,61.7,-64.3,53.6C-74.4,45.6,-76.3,28.4,-73.8,13.6C-71.4,-1.3,-64.5,-13.8,-55.6,-22.1C-46.7,-30.4,-35.7,-34.4,-26.1,-44.4C-16.5,-54.4,-8.2,-70.4,3,-75.1C14.3,-79.8,28.6,-73.3,41.3,-64.7Z" transform="translate(100 100)" />
</svg>
