<?xml version="1.0" standalone="no"?>
<svg viewBox="0 0 200 200" xmlns="http://www.w3.org/2000/svg">
  <path fill="#9071BB" d="M23.8,-42.3C32.7,-31.3,43,-27.8,50.5,-20.4C58,-13,62.7,-1.7,65.8,12.7C68.8,27.1,70.2,44.6,61.4,51.4C52.7,58.1,33.7,54.2,19.4,51.9C5.1,49.7,-4.6,49.1,-15.3,47.9C-26.1,46.7,-37.9,44.9,-41.5,37.7C-45.2,30.4,-40.6,17.8,-40.8,6.8C-41,-4.3,-45.8,-13.7,-43.9,-20.9C-41.9,-28.1,-33.1,-33,-24.7,-44.1C-16.2,-55.2,-8.1,-72.5,-0.3,-72C7.5,-71.5,14.9,-53.2,23.8,-42.3Z" transform="translate(100 100)" />
</svg>
