<?xml version="1.0" standalone="no"?>
<svg viewBox="0 0 200 200" xmlns="http://www.w3.org/2000/svg">
  <path fill="#9071BB" d="M45.7,-61.4C60,-62,72.7,-50.5,77.4,-36.5C82.1,-22.4,78.8,-5.8,74.4,9.3C70,24.3,64.5,37.8,54,42.9C43.5,48.1,27.9,45,15,46.8C2.2,48.5,-8,55.2,-17.3,54.4C-26.5,53.7,-34.9,45.6,-46.8,37.4C-58.8,29.3,-74.3,21.1,-72.8,12.2C-71.4,3.4,-52.9,-6.2,-45.8,-20.6C-38.7,-34.9,-42.9,-54.2,-37.2,-57.4C-31.4,-60.7,-15.7,-47.9,0,-48C15.7,-48,31.5,-60.7,45.7,-61.4Z" transform="translate(100 100)" />
</svg>
