<?xml version="1.0" standalone="no"?>
<svg viewBox="0 0 200 200" xmlns="http://www.w3.org/2000/svg">
  <path fill="#9071BB" d="M33.9,-43.8C46.9,-44.5,62.3,-40,67.8,-30.3C73.3,-20.6,68.9,-5.7,59.2,3.1C49.5,11.8,34.4,14.3,26.1,20.9C17.7,27.5,16.1,38.3,10.1,44.7C4.2,51.1,-6,53.1,-16.2,51.7C-26.5,50.3,-36.7,45.5,-47,38.2C-57.2,30.9,-67.5,21,-70.1,9.4C-72.8,-2.1,-67.8,-15.4,-62,-28.3C-56.1,-41.2,-49.3,-53.7,-38.8,-54.2C-28.3,-54.7,-14.2,-43.2,-1.8,-40.3C10.5,-37.5,21,-43.2,33.9,-43.8Z" transform="translate(100 100)" />
</svg>
