<?xml version="1.0" standalone="no"?>
<svg viewBox="0 0 200 200" xmlns="http://www.w3.org/2000/svg">
  <path fill="#9071BB" d="M38.9,-53.9C53.6,-51.2,70.6,-45.6,74.4,-34.7C78.1,-23.9,68.5,-7.7,59.1,3.4C49.6,14.6,40.2,20.6,33.8,30.9C27.4,41.2,24,55.7,17.4,56.4C10.7,57.1,0.8,44,-9.7,38.4C-20.1,32.8,-31.2,34.7,-43.6,31.6C-56,28.4,-69.8,20.2,-76.4,7.9C-83,-4.4,-82.4,-20.9,-74.2,-31.8C-65.9,-42.6,-50,-47.9,-36.4,-51C-22.7,-54.2,-11.4,-55.3,0.4,-55.9C12.2,-56.5,24.3,-56.7,38.9,-53.9Z" transform="translate(100 100)" />
</svg>
