<?xml version="1.0" standalone="no"?>
<svg viewBox="0 0 200 200" xmlns="http://www.w3.org/2000/svg">
  <path fill="#9071BB" d="M41.6,-62.3C52.9,-57.4,60.5,-44.3,67,-30.5C73.4,-16.7,78.6,-2.3,76,10.4C73.4,23.2,63,34.4,50.3,36.7C37.6,39.1,22.7,32.7,10.2,37.8C-2.3,42.9,-12.3,59.5,-17.7,58.7C-23.2,57.9,-23.9,39.7,-26.3,27.9C-28.7,16,-32.6,10.6,-33.9,4.6C-35.2,-1.5,-33.9,-8.2,-36,-21.8C-38.1,-35.4,-43.7,-56,-38.2,-63.6C-32.8,-71.1,-16.4,-65.6,-0.6,-64.6C15.1,-63.6,30.2,-67.1,41.6,-62.3Z" transform="translate(100 100)" />
</svg>
