<?xml version="1.0" standalone="no"?>
<svg viewBox="0 0 200 200" xmlns="http://www.w3.org/2000/svg">
  <path fill="#9071BB" d="M23,-41.7C30.2,-31.3,36.6,-25.4,42.9,-17.8C49.3,-10.1,55.6,-0.6,56.6,9.7C57.6,20.1,53.3,31.2,46.8,42.9C40.4,54.6,31.8,66.8,20.1,71.9C8.3,77,-6.5,74.9,-18.5,68.8C-30.5,62.6,-39.6,52.4,-42.8,41.3C-46.1,30.1,-43.5,18,-46.2,6C-48.8,-5.9,-56.7,-17.7,-53.2,-23.8C-49.7,-30,-34.8,-30.5,-24,-39.3C-13.3,-48.1,-6.6,-65.2,0.7,-66.2C7.9,-67.3,15.9,-52.2,23,-41.7Z" transform="translate(100 100)" />
</svg>
