<?xml version="1.0" standalone="no"?>
<svg viewBox="0 0 200 200" xmlns="http://www.w3.org/2000/svg">
  <path fill="#9071BB" d="M41.7,-73.8C48.7,-60.3,45.4,-39.8,50.7,-24.3C56,-8.8,70,1.6,68.1,9.2C66.1,16.8,48.2,21.5,38.1,32.9C28.1,44.3,25.9,62.4,17.3,70.1C8.7,77.7,-6.3,75,-14.3,65.1C-22.3,55.3,-23.4,38.3,-30.2,27.7C-37,17.1,-49.5,13,-52.6,6.2C-55.7,-0.6,-49.4,-10.2,-43.9,-19.1C-38.4,-28.1,-33.6,-36.5,-26.4,-49.8C-19.2,-63.2,-9.6,-81.5,3.9,-87.6C17.3,-93.6,34.7,-87.2,41.7,-73.8Z" transform="translate(100 100)" />
</svg>
