<?xml version="1.0" standalone="no"?>
<svg viewBox="0 0 200 200" xmlns="http://www.w3.org/2000/svg">
  <path fill="#9071BB" d="M24.7,-36.4C31.9,-33.8,37.6,-26.8,39.9,-19C42.3,-11.2,41.4,-2.7,45,10C48.7,22.7,56.9,39.6,51.5,43.1C46,46.6,27,36.8,11.7,42.5C-3.6,48.2,-15.1,69.4,-23.1,70.6C-31,71.9,-35.5,53.2,-44.3,40.1C-53.2,26.9,-66.6,19.2,-68.6,9.5C-70.6,-0.2,-61.2,-12,-50.9,-18.6C-40.6,-25.2,-29.4,-26.8,-20.8,-28.8C-12.1,-30.7,-6.1,-33.2,1.3,-35.2C8.7,-37.3,17.5,-39,24.7,-36.4Z" transform="translate(100 100)" />
</svg>
