<?xml version="1.0" standalone="no"?>
<svg viewBox="0 0 200 200" xmlns="http://www.w3.org/2000/svg">
  <path fill="#9071BB" d="M41.4,-61.4C56.1,-55,72.2,-47.6,76.6,-35.7C81,-23.7,73.7,-7.1,68.7,8C63.6,23.1,60.7,36.6,52.6,45.1C44.5,53.6,31.1,57,18.3,59.3C5.6,61.6,-6.6,62.7,-18.2,60.1C-29.8,57.6,-40.9,51.3,-49.7,42.4C-58.5,33.4,-65.1,21.9,-70.2,8.1C-75.3,-5.7,-79,-21.7,-74.2,-34.6C-69.4,-47.5,-56.3,-57.3,-42.5,-64.1C-28.7,-70.9,-14.4,-74.7,-0.5,-73.9C13.4,-73.2,26.7,-67.8,41.4,-61.4Z" transform="translate(100 100)" />
</svg>
