<?xml version="1.0" standalone="no"?>
<svg viewBox="0 0 200 200" xmlns="http://www.w3.org/2000/svg">
  <path fill="#9071BB" d="M48.9,-75.2C62.8,-67.2,72.9,-52.6,76.6,-37.1C80.3,-21.7,77.5,-5.5,73.3,9.2C69,23.8,63.3,36.8,54.8,48.7C46.4,60.7,35.3,71.5,22.4,74.5C9.5,77.5,-5.2,72.6,-21.8,69.7C-38.3,66.9,-56.7,66,-65.4,56.4C-74.1,46.8,-73.1,28.6,-75.1,11.1C-77.1,-6.4,-82.2,-23.1,-77,-35.5C-71.8,-47.9,-56.5,-56,-42,-63.7C-27.5,-71.3,-13.7,-78.5,1.9,-81.5C17.5,-84.5,35.1,-83.2,48.9,-75.2Z" transform="translate(100 100)" />
</svg>
