<?xml version="1.0" standalone="no"?>
<svg viewBox="0 0 200 200" xmlns="http://www.w3.org/2000/svg">
  <path fill="#9071BB" d="M39.6,-54.4C52.8,-53.1,66,-44.6,75.1,-32.1C84.1,-19.6,89,-3.1,86.4,12.1C83.8,27.4,73.7,41.2,61.4,50.4C49.1,59.5,34.6,64,19.5,70C4.5,76.1,-11.2,83.7,-25.3,81.6C-39.5,79.6,-52.2,67.9,-61.1,54.6C-69.9,41.3,-75,26.4,-78,10.7C-80.9,-5,-81.9,-21.4,-75,-33.3C-68.1,-45.3,-53.4,-52.7,-39.6,-53.7C-25.8,-54.7,-12.9,-49.2,0.2,-49.5C13.2,-49.7,26.4,-55.6,39.6,-54.4Z" transform="translate(100 100)" />
</svg>
