<?xml version="1.0" standalone="no"?>
<svg viewBox="0 0 200 200" xmlns="http://www.w3.org/2000/svg">
  <path fill="#9071BB" d="M45.6,-71.3C55.5,-64.5,57.6,-45.9,63.2,-29.9C68.8,-14,77.9,-0.7,79.6,13.9C81.3,28.6,75.7,44.7,65.4,56.8C55.1,69,40.1,77.3,24.9,79.2C9.6,81.2,-5.9,77,-20.7,72C-35.6,67,-49.9,61.3,-58.5,50.9C-67.2,40.6,-70.2,25.5,-71.5,10.8C-72.8,-4,-72.5,-18.5,-67.6,-31.5C-62.6,-44.6,-53.1,-56.2,-41.1,-62C-29.1,-67.8,-14.5,-67.8,1.6,-70.4C17.8,-72.9,35.6,-78,45.6,-71.3Z" transform="translate(100 100)" />
</svg>
