<?xml version="1.0" standalone="no"?>
<svg viewBox="0 0 200 200" xmlns="http://www.w3.org/2000/svg">
  <path fill="#9071BB" d="M46,-72.1C59.9,-62.6,71.9,-50.4,75.2,-36.3C78.6,-22.2,73.4,-6.2,71.4,10.5C69.4,27.2,70.5,44.7,63.3,57.3C56.1,69.8,40.6,77.5,25.5,78C10.3,78.5,-4.4,71.8,-18.2,65.9C-31.9,60,-44.8,55,-55.9,46.2C-67,37.4,-76.5,24.9,-80.3,10.4C-84.2,-4.1,-82.5,-20.5,-76.9,-36.1C-71.2,-51.7,-61.7,-66.4,-48.3,-76.1C-34.8,-85.8,-17.4,-90.5,-0.7,-89.4C16,-88.4,32,-81.6,46,-72.1Z" transform="translate(100 100)" />
</svg>
